<?xml version="1.0" encoding="utf-8"?>
<!-- Generator: Adobe Illustrator 22.1.0, SVG Export Plug-In . SVG Version: 6.00 Build 0)  -->
<svg version="1.1" id="layer_1" xmlns="http://www.w3.org/2000/svg" xmlns:xlink="http://www.w3.org/1999/xlink" x="0px" y="0px"
	 viewBox="0 0 1400 1400" style="enable-background:new 0 0 1400 1400;" xml:space="preserve">
<style type="text/css">
	.st0{fill:#FFFFFF;}
	.st1{fill:url(#SVGID_1_);}
	.st2{fill:url(#SVGID_2_);}
	.st3{fill:url(#SVGID_3_);}
	.st4{fill:url(#SVGID_4_);}
	.st5{fill:url(#SVGID_5_);}
	.st6{fill:url(#SVGID_6_);}
	.st7{fill:url(#SVGID_7_);}
	.st8{fill:#411C3E;}
	.st9{fill:url(#SVGID_8_);}
	.st10{fill:#FBDCC3;}
	.st11{fill:#6D420F;}
	.st12{fill:url(#SVGID_9_);}
	.st13{fill:#E55C01;}
	.st14{fill:url(#SVGID_10_);}
	.st15{fill:url(#SVGID_11_);}
	.st16{fill:url(#SVGID_12_);}
	.st17{fill:#D3710F;}
	.st18{fill:#B53B01;}
	.st19{fill:#E28010;}
	.st20{fill:url(#SVGID_13_);}
	.st21{fill:url(#SVGID_14_);}
	.st22{fill:#E55801;}
	.st23{fill:#0D7999;}
	.st24{fill:url(#SVGID_15_);}
	.st25{fill:#5B4A5F;}
	.st26{fill:#F7F6F3;}
	.st27{fill:#EDB32E;}
	.st28{fill:#E3E8E4;}
	.st29{fill:#40BDE3;}
	.st30{fill:url(#SVGID_16_);}
	.st31{fill:url(#SVGID_17_);}
	.st32{fill:#663646;}
</style>
<g>
	<rect class="st0" width="1400" height="1400"/>
	<g>
		<linearGradient id="SVGID_1_" gradientUnits="userSpaceOnUse" x1="109.9297" y1="648.655" x2="1194.0271" y2="648.655">
			<stop  offset="0" style="stop-color:#E5E2DF"/>
			<stop  offset="1" style="stop-color:#FBDCC3"/>
		</linearGradient>
		<path class="st1" d="M485.9,281.1c-484,379.4-525.3,957.4,20.3,936.8c545.6-20.6,765.2-407,623-476.3S1037,572.1,1152,389.3
			C1318.2,125.1,969.9-98.3,485.9,281.1z"/>
		<linearGradient id="SVGID_2_" gradientUnits="userSpaceOnUse" x1="365.0381" y1="975.5146" x2="1335.2367" y2="736.6511">
			<stop  offset="0" style="stop-color:#CCC7BA"/>
			<stop  offset="1" style="stop-color:#FBF9F3"/>
		</linearGradient>
		<path class="st2" d="M1129.1,741.7c-59.2-28.8-85-63-86.8-106.2C750.7,542,377,632.3,114.2,843.9c-29.7,217,93.1,385.3,391.9,374
			C1051.7,1197.3,1271.4,811,1129.1,741.7z"/>
		<linearGradient id="SVGID_3_" gradientUnits="userSpaceOnUse" x1="220.5437" y1="1090.9154" x2="443.9476" y2="1020.1339">
			<stop  offset="0" style="stop-color:#663646"/>
			<stop  offset="1" style="stop-color:#411C3E"/>
		</linearGradient>
		<path class="st3" d="M171.1,1098.1c36.1,45.8,88.3,80.8,157.6,101H442V928.2H171.1V1098.1z"/>
		<linearGradient id="SVGID_4_" gradientUnits="userSpaceOnUse" x1="549.6912" y1="921.1359" x2="368.3137" y2="671.1889">
			<stop  offset="0" style="stop-color:#663646"/>
			<stop  offset="1" style="stop-color:#BD9190"/>
		</linearGradient>
		<rect x="320.8" y="656.9" class="st4" width="270.9" height="270.9"/>
		<linearGradient id="SVGID_5_" gradientUnits="userSpaceOnUse" x1="732.8857" y1="1054.5724" x2="1003.8188" y2="1054.5724">
			<stop  offset="0" style="stop-color:#5B4A5F"/>
			<stop  offset="1" style="stop-color:#687F86"/>
		</linearGradient>
		<path class="st5" d="M732.9,1185.4c111.1-29,201.6-74.3,270.9-125.3V923.8H732.9V1185.4z"/>
		<linearGradient id="SVGID_6_" gradientUnits="userSpaceOnUse" x1="1190.9425" y1="138.6069" x2="1007.3531" y2="260.2625">
			<stop  offset="0" style="stop-color:#5B4A5F"/>
			<stop  offset="1" style="stop-color:#687F86"/>
		</linearGradient>
		<path class="st6" d="M931.2,243.3v36.5h163.7v-55.3H950C939.6,224.5,931.2,232.9,931.2,243.3z"/>
		<linearGradient id="SVGID_7_" gradientUnits="userSpaceOnUse" x1="879.5951" y1="317.0233" x2="1139.8384" y2="317.0233">
			<stop  offset="0" style="stop-color:#5B4A5F"/>
			<stop  offset="1" style="stop-color:#687F86"/>
		</linearGradient>
		<path class="st7" d="M1124.4,279.8H904.3c-13.6,0-24.7,11.1-24.7,24.7v49.8h260.2v-59C1139.8,286.7,1132.9,279.8,1124.4,279.8z"/>
		<path class="st8" d="M1045.5,220.1c-3.3,0-5.9,2.6-5.9,5.9v132.7c0,3.3,2.6,5.9,5.9,5.9s5.9-2.6,5.9-5.9V226
			C1051.4,222.7,1048.7,220.1,1045.5,220.1z"/>
		<path class="st8" d="M985,220.1c-3.3,0-5.9,2.6-5.9,5.9v132.7c0,3.3,2.6,5.9,5.9,5.9c3.3,0,5.9-2.6,5.9-5.9V226
			C990.9,222.7,988.3,220.1,985,220.1z"/>
		<linearGradient id="SVGID_8_" gradientUnits="userSpaceOnUse" x1="631.1476" y1="388.5349" x2="1156.7947" y2="388.5349">
			<stop  offset="0" style="stop-color:#5B4A5F"/>
			<stop  offset="1" style="stop-color:#687F86"/>
		</linearGradient>
		<path class="st9" d="M859.7,316.7c0-22-17.8-39.8-39.8-39.8H631.1v103.9h28.8v119.4H1086c17.8-33.2,40.3-70,66.1-111
			c1.7-2.6,3.2-5.2,4.8-7.9v-27.2H859.7V316.7z"/>
		<path class="st10" d="M786.3,328.1h-29.9c-11,0-19.9,8.9-19.9,19.9v29.9c0,11,8.9,19.9,19.9,19.9h49.8V348
			C806.2,337,797.3,328.1,786.3,328.1z"/>
		<path class="st8" d="M425.8,1125c0,0-15.5,134.2-15.5,166.6c72.2,24.3,162.2,22.1,186.5-2.9c12.5-50.1,29.5-91.4,41.3,2.9
			c56.8,26.5,177.7,0,177.7,0s-18.4-162.2-23.6-196.1S425.8,1125,425.8,1125z"/>
		<polygon class="st11" points="410.3,1029.9 456.1,1050.6 422.3,998.3 		"/>
		<linearGradient id="SVGID_9_" gradientUnits="userSpaceOnUse" x1="1227.4707" y1="473.6839" x2="1279.3569" y2="473.6839">
			<stop  offset="0" style="stop-color:#E18210"/>
			<stop  offset="1" style="stop-color:#E7A122"/>
		</linearGradient>
		<path class="st12" d="M1267.4,436.8l-39.8,16.2l8.1,33.2c-0.7,2.9-6.6,12.5-8.1,21.4c-1.5,8.8,14-4.4,20.6-11.1
			c0.7,7.4,8.8,5.2,15.5-5.2s13.1-23.7,15.4-32.9C1281.4,449.4,1267.4,436.8,1267.4,436.8z"/>
		<path class="st8" d="M506.6,466.3c0,0,31.7,53.1,49.4,49.4s-8.1-49.4-8.1-49.4H506.6z"/>
		<path class="st8" d="M423,944.5l-13,20.2c0,0,29.5,34.6,31,12.5C442.4,955.1,423,944.5,423,944.5z"/>
		<path class="st13" d="M1137.6,478.1C1123.6,487,937.1,588,937.1,588L894.3,714c0,0,15.5,11.1,31.7,3.7s6.9-12.5,78.1-52.3
			c106.9-59.7,106.2-104.7,176.9-149.7C1208.4,498.4,1151.6,469.3,1137.6,478.1z"/>
		<linearGradient id="SVGID_10_" gradientUnits="userSpaceOnUse" x1="894.3397" y1="603.41" x2="1188.4445" y2="603.41">
			<stop  offset="0" style="stop-color:#E55C01"/>
			<stop  offset="1" style="stop-color:#B53B01"/>
		</linearGradient>
		<path class="st14" d="M1174.1,486.6c-18.3,16.6-50.1,50.5-101,87c-67.8,48.7-134.9,88.5-152.6,86.3c-1.5-0.2-4-0.6-7.4-1.3
			L894.3,714c0,0,15.5,11.1,31.7,3.7s6.9-12.5,78.1-52.3c106.9-59.7,106.2-104.7,176.9-149.7
			C1195.1,506.9,1187.1,494.9,1174.1,486.6z"/>
		<linearGradient id="SVGID_11_" gradientUnits="userSpaceOnUse" x1="752.0748" y1="388.0878" x2="548.5781" y2="936.644">
			<stop  offset="0" style="stop-color:#E18210"/>
			<stop  offset="1" style="stop-color:#EDB32E"/>
		</linearGradient>
		<path class="st15" d="M857.5,579.1c-5.2-0.7-82.6-50.9-165.9-54.6c-83.3-3.7-112.1-13.3-112.1-13.3l-67.8-3.7l-25.8,0.7
			c0,0-27.3,18.4-64.9,50.9c-37.6,32.4-48.7,56-62.7,118c-14,61.9-19.2,150.4-19.2,150.4l86.3-5.2c0,0-11.1,98.8-5.9,159.2
			c5.2,60.5,121.6,47.9,121.6,47.9l221.9-322.9c0,0,118,23.6,124.6,25.1c6.6,1.5,18.4,8.1,22.9,9.6c4.4,1.5,10.3-32.4,19.9-78.1
			s5.9-75.2,5.9-75.2S862.6,579.8,857.5,579.1z"/>
		<linearGradient id="SVGID_12_" gradientUnits="userSpaceOnUse" x1="472.1927" y1="707.2095" x2="507.5835" y2="948.3088">
			<stop  offset="0" style="stop-color:#E18210"/>
			<stop  offset="1" style="stop-color:#E7A122"/>
		</linearGradient>
		<path class="st16" d="M521.7,611.2c-33.6-94.3-72.7-74.9-73.3-74.6c0,0,0,0,0,0c0.1,0.1,56.5,23.5,77,101.2
			c60.5,228.5-30.8,251.1-33.2,214.5c-9.6-149.7-45.7-186.5-45-168.8c0.7,17.7-2.9,134.2-2.9,134.2l-24.2,70
			c-1.8,30.6-2.9,66.3-0.5,94c1,11.5,6,20.4,13.5,27.2c33.4-7.8,77.4-21.4,115.9-44.5c73.7-44.2,24.3-154.1,23.6-167.4
			S555.6,706.3,521.7,611.2z"/>
		<path class="st17" d="M556.3,854.5l-137.6,59.9c-0.8,23.3-0.9,47.4,0.8,67.3c0,0.4,0.1,0.8,0.1,1.2c54.8-25.6,159-74,163.9-74.5
			c-5.2,22.9-12.3,36.5-12.3,36.5l20.3,11.5l94.5-137.5l-14.3-8.1L556.3,854.5z"/>
		<path class="st17" d="M920.5,659.8c-17.7-2.2-170.5-37.1-170.5-37.1l0.2,79.8c0,0,3.2,3.8,8.9,9.9l4-5.8c0,0,118,23.6,124.6,25.1
			c6.6,1.5,18.4,8.1,22.9,9.6c4.4,1.5,10.3-32.4,19.9-78.1c0.4-1.7,0.7-3.4,1-5C926.8,659.6,923.1,660.2,920.5,659.8z"/>
		<path class="st18" d="M618.6,441.2l-80.4-19.2l2.9,99.5l62.7,29.5l22.9,6.6c0,0,8.8,6.6,19.9,0c11.1-6.6,33.9-45.7,33.9-45.7
			l-2.9-20.6L618.6,441.2z"/>
		<path class="st19" d="M631.1,136c-58.2,0.7-123.7,18.7-142.2,103.7c151.7-49.6,220.3-49.9,220.3-49.9s6.6-20.6,7.4-25.8
			C717.4,158.9,689.4,135.3,631.1,136z"/>
		<path class="st13" d="M735.8,332.9l-104.7-28.8l-40.5,44.2l17,71.5l78.1,29.5l41.3-25.1c0,0,29.5-12.5,27.3-23.6
			C752.1,389.6,735.8,332.9,735.8,332.9z"/>
		<path class="st8" d="M751.3,317.4L654,293.1h-81.8l-73.7,16.2c0,0,0.7,78.1-8.1,101c17-5.9,19.9-17.7,19.9-17.7
			c-2.9,26.5-10.3,38.3-10.3,38.3c21.4,5.9,34.6,0,34.6,0s19.9,11.8,48.7,17.7c33.2,48.7,47.9,44.2,47.9,44.2
			c-10.3-11.1-11.1-19.9-11.1-19.9s45.7,31.7,79.6,34.6c-8.1-12.5-12.5-21.4-12.5-21.4s11.8,11.1,26.5,15.5
			c0-26.5,15.5-41.3,13.3-77.4c-35.4,10.3-57.5-8.8-57.5-8.8s0.7,8.1,11.1,17c-49.4-13.3-62.7-36.9-62.7-36.9l1.9-69.6
			c0,0,6.9,23.9,40.1,29c-12.5-13.3-15.5-22.1-15.5-22.1c53.8,22.9,74.5,12.5,104.7,25.1c-11.8-14-20.6-17.7-20.6-17.7
			s28.8,4.4,44.2,15.5C770.5,335.1,751.3,317.4,751.3,317.4z"/>
		<linearGradient id="SVGID_13_" gradientUnits="userSpaceOnUse" x1="587.4236" y1="308.4029" x2="487.1601" y2="371.0676">
			<stop  offset="0" style="stop-color:#5B4A5F"/>
			<stop  offset="1" style="stop-color:#687F86"/>
		</linearGradient>
		<path class="st20" d="M538.3,321.1c0,0-31.3,20.3-47.6,28.4c0,15.5-0.7,27.3,0.7,31.4c17.7-1.9,66.3-30.8,81.5-54.8
			C561.1,319.6,538.3,321.1,538.3,321.1z"/>
		<linearGradient id="SVGID_14_" gradientUnits="userSpaceOnUse" x1="694.9916" y1="399.4845" x2="593.2432" y2="215.8951">
			<stop  offset="0" style="stop-color:#E18210"/>
			<stop  offset="1" style="stop-color:#EDB32E"/>
		</linearGradient>
		<path class="st21" d="M787.4,303.4c-61.9-134.2-90.7-161.5-199.1-146S480,268.7,488.9,296.7c-27.3,11.8-24.3,29.5-14,28.8
			c18.6-1.3,342.8,4.4,356.8,2.9C845.7,327,834.6,315.2,787.4,303.4z"/>
		<path class="st8" d="M700.4,365.3c0.9,13,8.8,14.7,9.6,1.5C710.8,353.5,699.7,355,700.4,365.3z"/>
		<path class="st8" d="M696.8,334.3c-17,0.7-20,13.7-13.3,14.7c9.6,1.5,39.1,2.4,44.6,2.9C742.5,353.5,713.7,333.6,696.8,334.3z"/>
		<path class="st13" d="M567.7,354.3c3.7,39.8,31.7,38.3,36.1,31.7c0-25.8,0-50.9,0-50.9C592.1,315.9,564.1,314.4,567.7,354.3z"/>
		<path class="st22" d="M485.9,508.3c0,0,31,33.2,81.8,84c0,0,18.4-15.5,59-34.6c-13.3-7.4-120.2-91.4-120.2-91.4
			C504.3,475.2,485.9,508.3,485.9,508.3z"/>
		<path class="st23" d="M696.8,692.6c19.2,9.6,8.8-45.7,8.8-45.7C685,649.9,677.6,683.1,696.8,692.6z"/>
		<linearGradient id="SVGID_15_" gradientUnits="userSpaceOnUse" x1="589.6342" y1="739.876" x2="620.601" y2="1142.4454">
			<stop  offset="0" style="stop-color:#5B4A5F"/>
			<stop  offset="1" style="stop-color:#687F86"/>
		</linearGradient>
		<path class="st24" d="M764.6,660.9c0,0-5.9-108.4-10.3-130.5c-14.7-5.2-28-5.9-28-5.9s11.8,62.7,8.8,141.5
			c-48.7,45.7-173.2,18.4-173.2,18.4s-36.1-154.1-97.3-168.8c-4.4-2.9-17,7.4-20.6,19.9c0,0,39.8,3.7,64.9,113.5
			c25.1,109.8,23.2,275.4,22.5,282c-14,5.9-97.7,39.4-104.3,40.9s-17-8.1-17-8.1s11.1,52.3,11.8,69.3c0.7,17,61.2,61.9,61.2,61.9
			l235.2,9.6c0,0,66.4-9.6,70.8-21.4c4.4-11.8,6.6-31.7,8.1-36.9c1.5-5.2,0-19.9,0-19.9s5.2-14,6.6-28c1.5-14-8.8-107.6-10.3-165.9
			C791.9,774.5,764.6,660.9,764.6,660.9z"/>
		<path class="st8" d="M727.9,627.1c0,0-0.6,34.6-0.7,41.6c24.1,7.5,43.7-3,43.7-3s2.5-36.3,1.8-41.3
			C772,619.5,727.9,627.1,727.9,627.1z"/>
		<g>
			<path class="st25" d="M556.3,854.5l-25.7,11.2c0.8,30.8,0.7,54.8,0.5,65.6c28.4-13,50.3-22.7,52.5-23
				c-5.2,22.9-12.3,36.5-12.3,36.5l34.4,19.5c0,0,157,14,167.4,12.5l22.6-96.5c0,0,0,0,0,0l-124-69.7L556.3,854.5z"/>
			<path class="st25" d="M410,964.7c0,0,1.9,9,4.2,20.7c13.6-6.3,30.8-18.4,49.3-27c-18.4,5.5-34,13.8-36.5,14.4
				C420.3,974.3,410,964.7,410,964.7z"/>
		</g>
		<path class="st26" d="M738.8,656.5c-37.6-16.2-30.4,0.4-30.4,0.4l-19,65.2l-51.6,207.2l140.8,15.5l54.6-205.7
			C833.1,739.1,776.4,672.7,738.8,656.5z"/>
		<path class="st11" d="M573.3,811l-5.2,10.3l9.6,35.4l22.1,9.6c0,0,0-45-10.3-59C579.2,793.3,573.3,811,573.3,811z"/>
		<path class="st22" d="M646.6,558.5l70,2.9c0,0-15.6-21-37.5-49.7C673.3,523.1,646.6,558.5,646.6,558.5z"/>
		<path class="st27" d="M1268.1,442c25.8-8.8,46.1-53.4,32.8-52c-13.3,1.5-46.8,24.7-83.7,35s-39.8,4.4-88.5,47.9
			c0,0,27.3,33.9,37.6,63.4c47.9-18.4,42-28,65.6-41.3c23.6-13.3,36.1-8.8,49.4-22.1c8.1-8.1,7.4-18.4-17-13.3
			C1240.1,464.8,1242.3,450.8,1268.1,442z"/>
		<path class="st13" d="M579.5,810.6c-22.1,19.2-89.2,24.3-134.2,47.9c0-28.8-0.7-41.3-0.7-41.3c-35.4-0.7-99.1,9.9-99.1,9.9
			s15.1,73.4,30.6,104.3c15.5,31,89.2-1.5,125.3-15.5c36.1-14,66.4-32.4,105.4-67.1C639.6,819.9,601.7,791.4,579.5,810.6z"/>
		<path class="st28" d="M705.6,649.1c0,0-77.4,270.6-78.9,275c11.1,5.2,11.1,5.2,11.1,5.2s78.1-273.5,78.9-276.5
			C717.4,649.9,707.1,644,705.6,649.1z"/>
		<path class="st27" d="M709.3,747.2c-14.7,9.6-31.7,11.1-42.8,14.7c-10.8,3.6,0.2-12.5,11.8-17.4c2.2-7.7,4.4-15.3,6.4-22.5
			c-3.6-0.5-8.7,0.1-16,2.3c-34.6,10.3-55.3,34.6-64.9,45c-9.6,10.3-15.5,22.1-31,41.3c0,0,23.6,30.2,26.5,55.3
			c60.5-17.7,78.9-33.9,87.7-39.8c8.8-5.9,7.4-11.8,7.4-11.8c13.3-11.1,11.1-21.4,11.1-21.4s12.5-19.9,8.1-23.6
			C729.9,755.3,724,737.6,709.3,747.2z"/>
		<path class="st29" d="M837.6,668.3l-132-21.4c0,0,57.5,14.7,0,87.7c87,19.2,132,23.6,132,23.6
			C871.5,719.9,861.9,679.4,837.6,668.3z"/>
		<path class="st8" d="M501.4,648.4c0,0,7.4,34.6,10.3,41.3c31-1.5,52.3-19.2,52.3-19.2s-11.1-35.4-14-39.8
			C547.1,626.3,501.4,648.4,501.4,648.4z"/>
		<path class="st18" d="M583.2,328.5c-8.1,4.4-8.8,20.6-6.6,14.7c2.2-5.9,14.9-0.9,20.6,2.9C603.9,350.6,591.3,324,583.2,328.5z"/>
		<path class="st18" d="M587.7,364.6c6.6,9.6,9.6,9.6,9.6-4.4C597.2,348.9,581,355,587.7,364.6z"/>
		<path class="st18" d="M698.6,444.6c-5.3-2.6-12.5,1.5-13.3,4.4c-0.7,2.9,7.4,3.7,13.3,3.7C704.5,452.7,708.9,449.7,698.6,444.6z"
			/>
		<linearGradient id="SVGID_16_" gradientUnits="userSpaceOnUse" x1="345.5134" y1="847.0155" x2="499.029" y2="847.0155">
			<stop  offset="0" style="stop-color:#E55C01"/>
			<stop  offset="1" style="stop-color:#B53B01"/>
		</linearGradient>
		<path class="st30" d="M445.4,858.5c0-28.8-0.7-41.3-0.7-41.3c-35.4-0.7-99.1,9.9-99.1,9.9s0,0,0,0c1.9,0.1,85.5,5.2,89.2,7.4
			c0,22.1-3.7,39.1-2.9,42c0.7,2.9,19.6-21,67.3-37.8c0,0,0,0,0,0C480.4,844,461.4,850.1,445.4,858.5z"/>
		<linearGradient id="SVGID_17_" gradientUnits="userSpaceOnUse" x1="410.0482" y1="1087.381" x2="801.2797" y2="1087.381">
			<stop  offset="0" style="stop-color:#E18210"/>
			<stop  offset="1" style="stop-color:#E7A122"/>
		</linearGradient>
		<path class="st31" d="M532.7,1066.8c-29.5-6.6-122.4-36.9-122.4-36.9c-2.9,9.6,17,95.1,17,95.1s45.7,12.5,154.8,18.4
			s212.3-8.8,214.5-13.3c2.2-4.4,10.3-25.1-2.2-70.8C785.6,1066.8,562.2,1073.4,532.7,1066.8z"/>
		<circle class="st8" cx="906.5" cy="499.9" r="46.8"/>
		<path class="st8" d="M864.1,380.8c-2.4,0-4.4,2-4.4,4.4v63.4c0,2.4,2,4.4,4.4,4.4c2.4,0,4.4-2,4.4-4.4v-63.4
			C868.5,382.8,866.6,380.8,864.1,380.8z"/>
		<circle class="st32" cx="906.5" cy="499.9" r="14.7"/>
	</g>
</g>
</svg>
